<svg xmlns="http://www.w3.org/2000/svg" xmlns:xlink="http://www.w3.org/1999/xlink" width="500" zoomAndPan="magnify" viewBox="0 0 375 374.999991" height="500" preserveAspectRatio="xMidYMid meet" version="1.0"><defs><clipPath id="9c56c38ed7"><path d="M 115 54.457031 L 226 54.457031 L 226 175 L 115 175 Z M 115 54.457031 " clip-rule="nonzero"/></clipPath><clipPath id="bc01ade02e"><path d="M 63.410156 128 L 287 128 L 287 320.707031 L 63.410156 320.707031 Z M 63.410156 128 " clip-rule="nonzero"/></clipPath><clipPath id="fa9fc27792"><path d="M 88 128 L 311.660156 128 L 311.660156 320.707031 L 88 320.707031 Z M 88 128 " clip-rule="nonzero"/></clipPath><clipPath id="33f0140918"><path d="M 143 54.457031 L 254 54.457031 L 254 175 L 143 175 Z M 143 54.457031 " clip-rule="nonzero"/></clipPath></defs><g clip-path="url(#9c56c38ed7)"><path fill="#100f0f" d="M 218.929688 174.546875 C 215.46875 174.546875 212.660156 171.738281 212.660156 168.273438 L 212.660156 109.160156 C 212.660156 85.890625 193.738281 66.960938 170.492188 66.960938 C 147.234375 66.960938 128.308594 85.890625 128.308594 109.160156 L 128.308594 168.273438 C 128.308594 171.738281 125.5 174.546875 122.054688 174.546875 C 118.582031 174.546875 115.785156 171.738281 115.785156 168.273438 L 115.785156 109.160156 C 115.785156 78.980469 140.324219 54.433594 170.492188 54.433594 C 200.660156 54.433594 225.195312 78.980469 225.195312 109.160156 L 225.195312 168.273438 C 225.195312 171.738281 222.402344 174.546875 218.929688 174.546875 " fill-opacity="1" fill-rule="nonzero"/></g><g clip-path="url(#bc01ade02e)"><path fill="#0b4649" d="M 286.445312 305.515625 C 286.445312 313.890625 279.589844 320.734375 271.21875 320.734375 L 79.0625 320.734375 C 70.691406 320.734375 63.847656 313.890625 63.847656 305.515625 L 64.019531 144.066406 C 64.019531 135.691406 70.875 128.832031 79.246094 128.832031 L 267.585938 128.832031 C 275.957031 128.832031 282.816406 135.691406 282.816406 144.066406 L 286.445312 305.515625 " fill-opacity="1" fill-rule="nonzero"/></g><g clip-path="url(#fa9fc27792)"><path fill="#2495d6" d="M 311.347656 305.515625 C 311.347656 313.890625 304.507812 320.734375 296.136719 320.734375 L 103.980469 320.734375 C 95.609375 320.734375 88.753906 313.890625 88.753906 305.515625 L 88.9375 144.066406 C 88.9375 135.691406 95.777344 128.832031 104.148438 128.832031 L 292.503906 128.832031 C 300.875 128.832031 307.730469 135.691406 307.730469 144.066406 L 311.347656 305.515625 " fill-opacity="1" fill-rule="nonzero"/></g><path fill="#0b4649" d="M 163.558594 168.273438 C 163.558594 176.308594 157.039062 182.828125 149.007812 182.828125 C 140.964844 182.828125 134.449219 176.308594 134.449219 168.273438 C 134.449219 160.226562 140.964844 153.722656 149.007812 153.722656 C 157.039062 153.722656 163.558594 160.226562 163.558594 168.273438 " fill-opacity="1" fill-rule="nonzero"/><path fill="#0b4649" d="M 262.207031 168.273438 C 262.207031 176.308594 255.691406 182.828125 247.660156 182.828125 C 239.613281 182.828125 233.097656 176.308594 233.097656 168.273438 C 233.097656 160.226562 239.613281 153.722656 247.660156 153.722656 C 255.691406 153.722656 262.207031 160.226562 262.207031 168.273438 " fill-opacity="1" fill-rule="nonzero"/><g clip-path="url(#33f0140918)"><path fill="#141515" d="M 246.769531 174.546875 C 243.308594 174.546875 240.503906 171.738281 240.503906 168.273438 L 240.503906 109.160156 C 240.503906 85.890625 221.578125 66.960938 198.332031 66.960938 C 175.074219 66.960938 156.152344 85.890625 156.152344 109.160156 L 156.152344 168.273438 C 156.152344 171.738281 153.34375 174.546875 149.882812 174.546875 C 146.421875 174.546875 143.617188 171.738281 143.617188 168.273438 L 143.617188 109.160156 C 143.617188 78.980469 168.152344 54.433594 198.332031 54.433594 C 228.5 54.433594 253.039062 78.980469 253.039062 109.160156 L 253.039062 168.273438 C 253.039062 171.738281 250.230469 174.546875 246.769531 174.546875 " fill-opacity="1" fill-rule="nonzero"/></g><path fill="#ffffff" d="M 259.230469 217.5 L 256.828125 217.382812 C 252.832031 217.199219 249.460938 219.957031 249.292969 223.5625 L 248.339844 243.878906 L 248.324219 243.851562 L 245.675781 239.148438 L 221.722656 196.714844 C 220.050781 193.75 216.289062 192.703125 213.324219 194.378906 L 211.535156 195.382812 C 208.574219 197.070312 207.527344 200.816406 209.199219 203.785156 L 220.664062 224.113281 C 219.230469 223.796875 217.6875 223.980469 216.316406 224.75 L 214.515625 225.757812 C 211.5625 227.441406 210.503906 231.191406 212.191406 234.15625 C 210.503906 231.191406 206.757812 230.148438 203.792969 231.820312 L 201.992188 232.839844 C 199.039062 234.511719 197.980469 238.273438 199.652344 241.238281 C 197.980469 238.273438 194.234375 237.226562 191.253906 238.898438 L 189.480469 239.90625 C 186.515625 241.578125 185.457031 245.339844 187.128906 248.304688 L 197.355469 266.425781 C 197.355469 266.425781 210.859375 291.132812 216.527344 297.949219 C 221.777344 304.3125 222.910156 302.71875 225.222656 305.019531 C 228.632812 308.414062 231.898438 311.25 234.859375 309.578125 L 263.042969 293.664062 C 266.019531 291.992188 265.902344 287.511719 264.140625 283.042969 C 263.5 281.425781 262.636719 276.878906 263.070312 276.132812 C 263.070312 276.132812 263.90625 273.117188 263.867188 272.578125 L 266.136719 224.359375 C 266.308594 220.753906 263.210938 217.683594 259.230469 217.5 " fill-opacity="1" fill-rule="nonzero"/></svg>